<mxfile host="app.diagrams.net" agent="Mozilla/5.0 (Windows NT 10.0; Win64; x64) AppleWebKit/537.36 (KHTML, like Gecko) Chrome/136.0.0.0 Safari/537.36" version="27.0.5">
  <diagram name="Page-1" id="2h7HDEM5m4908WPS2y2u">
    <mxGraphModel dx="1251" dy="660" grid="1" gridSize="10" guides="1" tooltips="1" connect="1" arrows="1" fold="1" page="1" pageScale="1" pageWidth="827" pageHeight="1169" math="0" shadow="0">
      <root>
        <mxCell id="0" />
        <mxCell id="1" parent="0" />
        <mxCell id="ARhQoWU-gYZ1ITcfCtZC-19" value="" style="rounded=0;whiteSpace=wrap;html=1;dashed=1;fillColor=#d5e8d4;strokeColor=#82b366;glass=0;shadow=0;opacity=70;" vertex="1" parent="1">
          <mxGeometry x="224" y="160" width="380" height="460" as="geometry" />
        </mxCell>
        <mxCell id="ARhQoWU-gYZ1ITcfCtZC-6" style="edgeStyle=orthogonalEdgeStyle;rounded=0;orthogonalLoop=1;jettySize=auto;html=1;entryX=0.5;entryY=0;entryDx=0;entryDy=0;" edge="1" parent="1" source="ARhQoWU-gYZ1ITcfCtZC-1" target="ARhQoWU-gYZ1ITcfCtZC-2">
          <mxGeometry relative="1" as="geometry" />
        </mxCell>
        <mxCell id="ARhQoWU-gYZ1ITcfCtZC-7" value="HTTP&amp;nbsp;&lt;div&gt;Request&lt;/div&gt;" style="edgeLabel;html=1;align=center;verticalAlign=middle;resizable=0;points=[];" vertex="1" connectable="0" parent="ARhQoWU-gYZ1ITcfCtZC-6">
          <mxGeometry x="-0.1331" relative="1" as="geometry">
            <mxPoint as="offset" />
          </mxGeometry>
        </mxCell>
        <mxCell id="ARhQoWU-gYZ1ITcfCtZC-1" value="&lt;b&gt;.NET Core&amp;nbsp;&lt;/b&gt;&lt;div&gt;&lt;b&gt;MVC Web App&lt;/b&gt;&lt;/div&gt;&lt;div&gt;[User inputs &amp;amp; results]&lt;/div&gt;" style="rounded=1;whiteSpace=wrap;html=1;fillColor=#dae8fc;strokeColor=#6c8ebf;" vertex="1" parent="1">
          <mxGeometry x="354" y="40" width="120" height="60" as="geometry" />
        </mxCell>
        <mxCell id="ARhQoWU-gYZ1ITcfCtZC-8" style="edgeStyle=orthogonalEdgeStyle;rounded=0;orthogonalLoop=1;jettySize=auto;html=1;entryX=0.5;entryY=0;entryDx=0;entryDy=0;" edge="1" parent="1" source="ARhQoWU-gYZ1ITcfCtZC-2" target="ARhQoWU-gYZ1ITcfCtZC-3">
          <mxGeometry relative="1" as="geometry" />
        </mxCell>
        <mxCell id="ARhQoWU-gYZ1ITcfCtZC-9" value="Route&lt;div&gt;match&lt;/div&gt;" style="edgeLabel;html=1;align=center;verticalAlign=middle;resizable=0;points=[];" vertex="1" connectable="0" parent="ARhQoWU-gYZ1ITcfCtZC-8">
          <mxGeometry x="-0.3109" y="-3" relative="1" as="geometry">
            <mxPoint as="offset" />
          </mxGeometry>
        </mxCell>
        <mxCell id="ARhQoWU-gYZ1ITcfCtZC-2" value="&lt;b&gt;FastAPI Entry Point&lt;/b&gt;&lt;div&gt;app/main.py&lt;/div&gt;" style="rounded=1;whiteSpace=wrap;html=1;fillColor=#d5e8d4;strokeColor=#82b366;" vertex="1" parent="1">
          <mxGeometry x="354" y="190" width="120" height="60" as="geometry" />
        </mxCell>
        <mxCell id="ARhQoWU-gYZ1ITcfCtZC-10" style="edgeStyle=orthogonalEdgeStyle;rounded=0;orthogonalLoop=1;jettySize=auto;html=1;entryX=0.25;entryY=0;entryDx=0;entryDy=0;exitX=0.25;exitY=1;exitDx=0;exitDy=0;" edge="1" parent="1" source="ARhQoWU-gYZ1ITcfCtZC-3" target="ARhQoWU-gYZ1ITcfCtZC-4">
          <mxGeometry relative="1" as="geometry" />
        </mxCell>
        <mxCell id="ARhQoWU-gYZ1ITcfCtZC-11" value="Run&lt;div&gt;calculations&lt;/div&gt;" style="edgeLabel;html=1;align=center;verticalAlign=middle;resizable=0;points=[];" vertex="1" connectable="0" parent="ARhQoWU-gYZ1ITcfCtZC-10">
          <mxGeometry x="-0.1775" y="1" relative="1" as="geometry">
            <mxPoint as="offset" />
          </mxGeometry>
        </mxCell>
        <mxCell id="ARhQoWU-gYZ1ITcfCtZC-16" style="edgeStyle=elbowEdgeStyle;rounded=0;orthogonalLoop=1;jettySize=auto;html=1;entryX=1;entryY=0.5;entryDx=0;entryDy=0;elbow=vertical;" edge="1" parent="1" source="ARhQoWU-gYZ1ITcfCtZC-3" target="ARhQoWU-gYZ1ITcfCtZC-1">
          <mxGeometry relative="1" as="geometry">
            <Array as="points">
              <mxPoint x="520" y="320" />
            </Array>
          </mxGeometry>
        </mxCell>
        <mxCell id="ARhQoWU-gYZ1ITcfCtZC-18" value="JSON&lt;div&gt;Response&lt;/div&gt;" style="edgeLabel;html=1;align=center;verticalAlign=middle;resizable=0;points=[];" vertex="1" connectable="0" parent="ARhQoWU-gYZ1ITcfCtZC-16">
          <mxGeometry x="0.0505" y="-2" relative="1" as="geometry">
            <mxPoint as="offset" />
          </mxGeometry>
        </mxCell>
        <mxCell id="ARhQoWU-gYZ1ITcfCtZC-3" value="&lt;b&gt;API Router&lt;/b&gt;&lt;div&gt;/api/calculate&lt;/div&gt;" style="rounded=1;whiteSpace=wrap;html=1;fillColor=#d5e8d4;strokeColor=#82b366;" vertex="1" parent="1">
          <mxGeometry x="354" y="340" width="120" height="60" as="geometry" />
        </mxCell>
        <mxCell id="ARhQoWU-gYZ1ITcfCtZC-12" style="edgeStyle=orthogonalEdgeStyle;rounded=0;orthogonalLoop=1;jettySize=auto;html=1;entryX=0.5;entryY=0;entryDx=0;entryDy=0;" edge="1" parent="1" source="ARhQoWU-gYZ1ITcfCtZC-4" target="ARhQoWU-gYZ1ITcfCtZC-5">
          <mxGeometry relative="1" as="geometry" />
        </mxCell>
        <mxCell id="ARhQoWU-gYZ1ITcfCtZC-13" value="Load&lt;div&gt;emission&lt;/div&gt;&lt;div&gt;data&lt;/div&gt;" style="edgeLabel;html=1;align=center;verticalAlign=middle;resizable=0;points=[];" vertex="1" connectable="0" parent="ARhQoWU-gYZ1ITcfCtZC-12">
          <mxGeometry x="-0.2038" y="-3" relative="1" as="geometry">
            <mxPoint as="offset" />
          </mxGeometry>
        </mxCell>
        <mxCell id="ARhQoWU-gYZ1ITcfCtZC-14" style="edgeStyle=orthogonalEdgeStyle;rounded=0;orthogonalLoop=1;jettySize=auto;html=1;entryX=0.75;entryY=1;entryDx=0;entryDy=0;exitX=0.75;exitY=0;exitDx=0;exitDy=0;" edge="1" parent="1" source="ARhQoWU-gYZ1ITcfCtZC-4" target="ARhQoWU-gYZ1ITcfCtZC-3">
          <mxGeometry relative="1" as="geometry" />
        </mxCell>
        <mxCell id="ARhQoWU-gYZ1ITcfCtZC-15" value="Return&lt;div&gt;results&lt;/div&gt;" style="edgeLabel;html=1;align=center;verticalAlign=middle;resizable=0;points=[];" vertex="1" connectable="0" parent="ARhQoWU-gYZ1ITcfCtZC-14">
          <mxGeometry x="0.0927" y="3" relative="1" as="geometry">
            <mxPoint as="offset" />
          </mxGeometry>
        </mxCell>
        <mxCell id="ARhQoWU-gYZ1ITcfCtZC-4" value="&lt;b&gt;Logic Layer&lt;/b&gt;&lt;br&gt;app/services/" style="rounded=1;whiteSpace=wrap;html=1;fillColor=#d5e8d4;strokeColor=#82b366;" vertex="1" parent="1">
          <mxGeometry x="354" y="490" width="120" height="60" as="geometry" />
        </mxCell>
        <mxCell id="ARhQoWU-gYZ1ITcfCtZC-5" value="&lt;b&gt;Static Data Files&lt;/b&gt;&lt;br&gt;app/data/&lt;div&gt;(JSON, CSV)&lt;/div&gt;" style="rounded=1;whiteSpace=wrap;html=1;fillColor=#e1d5e7;strokeColor=#9673a6;" vertex="1" parent="1">
          <mxGeometry x="354" y="640" width="120" height="60" as="geometry" />
        </mxCell>
        <mxCell id="ARhQoWU-gYZ1ITcfCtZC-20" value="&lt;b&gt;FastAPI Backend&lt;/b&gt;" style="text;html=1;align=center;verticalAlign=middle;whiteSpace=wrap;rounded=0;" vertex="1" parent="1">
          <mxGeometry x="224" y="130" width="60" height="30" as="geometry" />
        </mxCell>
      </root>
    </mxGraphModel>
  </diagram>
</mxfile>
